<?xml version="1.0" encoding="UTF-8" standalone="no"?>
<!DOCTYPE svg PUBLIC "-//W3C//DTD SVG 1.1//EN"
 "http://www.w3.org/Graphics/SVG/1.1/DTD/svg11.dtd">
<!-- Generated by graphviz version 2.43.0 (0)
 -->
<!-- Title: %3 Pages: 1 -->
<svg width="533pt" height="309pt"
 viewBox="0.00 0.00 533.10 308.74" xmlns="http://www.w3.org/2000/svg" xmlns:xlink="http://www.w3.org/1999/xlink">
<g id="graph0" class="graph" transform="scale(1 1) rotate(0) translate(4 304.74)">
<title>%3</title>
<polygon fill="white" stroke="transparent" points="-4,4 -4,-304.74 529.1,-304.74 529.1,4 -4,4"/>
<!-- 2 -->
<g id="node1" class="node">
<title>2</title>
<ellipse fill="#80ff80" fill-opacity="0.501961" stroke="black" cx="299.1" cy="-200.87" rx="28.98" ry="26.74"/>
<text text-anchor="middle" x="299.1" y="-204.67" font-family="Times,serif" font-size="14.00">(2,)</text>
<text text-anchor="middle" x="299.1" y="-189.67" font-family="Times,serif" font-size="14.00">(0,)</text>
</g>
<!-- 1 -->
<g id="node3" class="node">
<title>1</title>
<ellipse fill="#c0c0c0" stroke="black" cx="167.1" cy="-105" rx="27" ry="18"/>
<text text-anchor="middle" x="167.1" y="-101.3" font-family="Times,serif" font-size="14.00">(2,)</text>
</g>
<!-- 2&#45;&gt;1 -->
<g id="edge1" class="edge">
<title>2&#45;&gt;1</title>
<path fill="none" stroke="#000000" stroke-opacity="0.376471" d="M294.78,-174.14C291.64,-162.63 286.27,-149.72 277.1,-141 257.37,-122.23 227.59,-113.52 203.99,-109.49"/>
<polygon fill="#000000" fill-opacity="0.376471" stroke="#000000" stroke-opacity="0.376471" points="204.38,-106.01 193.97,-107.98 203.34,-112.93 204.38,-106.01"/>
<text text-anchor="middle" x="341.6" y="-144.8" font-family="Times,serif" font-size="14.00">MUL.testeADD</text>
</g>
<!-- 0 -->
<g id="node2" class="node">
<title>0</title>
<ellipse fill="none" stroke="black" cx="299.1" cy="-282.74" rx="27" ry="18"/>
<text text-anchor="middle" x="299.1" y="-279.04" font-family="Times,serif" font-size="14.00">(1,)</text>
</g>
<!-- 0&#45;&gt;2 -->
<g id="edge2" class="edge">
<title>0&#45;&gt;2</title>
<path fill="none" stroke="#000000" stroke-opacity="0.376471" d="M299.1,-264.41C299.1,-256.68 299.1,-247.26 299.1,-238.1"/>
<polygon fill="#000000" fill-opacity="0.376471" stroke="#000000" stroke-opacity="0.376471" points="302.6,-237.97 299.1,-227.97 295.6,-237.97 302.6,-237.97"/>
</g>
<!-- 5 -->
<g id="node6" class="node">
<title>5</title>
<ellipse fill="#c0c0c0" stroke="black" cx="167.1" cy="-18" rx="27" ry="18"/>
<text text-anchor="middle" x="167.1" y="-14.3" font-family="Times,serif" font-size="14.00">(2,)</text>
</g>
<!-- 1&#45;&gt;5 -->
<g id="edge3" class="edge">
<title>1&#45;&gt;5</title>
<path fill="none" stroke="#000000" stroke-opacity="0.376471" d="M167.1,-86.8C167.1,-75.16 167.1,-59.55 167.1,-46.24"/>
<polygon fill="#000000" fill-opacity="0.376471" stroke="#000000" stroke-opacity="0.376471" points="170.6,-46.18 167.1,-36.18 163.6,-46.18 170.6,-46.18"/>
<text text-anchor="middle" x="346.1" y="-57.8" font-family="Times,serif" font-size="14.00">MUL.teste2EXP.teste2ADD.teste2LOG.teste2MUL</text>
</g>
<!-- 3 -->
<g id="node4" class="node">
<title>3</title>
<ellipse fill="none" stroke="black" cx="35.1" cy="-200.87" rx="35.19" ry="18"/>
<text text-anchor="middle" x="35.1" y="-197.17" font-family="Times,serif" font-size="14.00">(2, 1)</text>
</g>
<!-- 3&#45;&gt;1 -->
<g id="edge4" class="edge">
<title>3&#45;&gt;1</title>
<path fill="none" stroke="#000000" stroke-opacity="0.376471" d="M36.43,-182.71C38.33,-169.62 42.94,-152.02 54.1,-141 74.29,-121.04 105.63,-112.43 130.19,-108.74"/>
<polygon fill="#000000" fill-opacity="0.376471" stroke="#000000" stroke-opacity="0.376471" points="130.78,-112.19 140.24,-107.43 129.88,-105.25 130.78,-112.19"/>
<text text-anchor="middle" x="108.6" y="-144.8" font-family="Times,serif" font-size="14.00">MUL.testeADD</text>
</g>
<!-- 4 -->
<g id="node5" class="node">
<title>4</title>
<ellipse fill="none" stroke="black" cx="167.1" cy="-200.87" rx="27" ry="18"/>
<text text-anchor="middle" x="167.1" y="-197.17" font-family="Times,serif" font-size="14.00">(2,)</text>
</g>
<!-- 4&#45;&gt;1 -->
<g id="edge5" class="edge">
<title>4&#45;&gt;1</title>
<path fill="none" stroke="#000000" stroke-opacity="0.376471" d="M167.1,-182.65C167.1,-168.89 167.1,-149.34 167.1,-133.43"/>
<polygon fill="#000000" fill-opacity="0.376471" stroke="#000000" stroke-opacity="0.376471" points="170.6,-133.11 167.1,-123.11 163.6,-133.11 170.6,-133.11"/>
<text text-anchor="middle" x="221.6" y="-144.8" font-family="Times,serif" font-size="14.00">MUL.testeADD</text>
</g>
</g>
</svg>
